
<svg data-v-423bf9ae="" xmlns="http://www.w3.org/2000/svg" viewBox="0 0 332 90" class="iconLeft">

    <g data-v-423bf9ae="" id="ddd3e19d-7abb-4bd4-a86b-6991cc84454f" fill="#3ECC5F"
        transform="matrix(5.400539757315222,0,0,5.400539757315222,106.11160489289304,-18.213321453035697)">
        <path
            d="M5.50 12.07L5.50 11.20Q5.42 11.18 5.32 11.16Q5.22 11.14 5.08 11.12Q4.94 11.09 4.75 11.08Q4.56 11.07 4.31 11.07L4.31 11.07Q3.64 11.07 3.19 11.34Q2.74 11.61 2.47 12.06Q2.21 12.51 2.10 13.09Q1.98 13.67 1.98 14.29L1.98 14.29Q1.98 14.68 2.06 15.02Q2.14 15.35 2.28 15.59Q2.41 15.83 2.59 15.97Q2.77 16.10 2.97 16.10L2.97 16.10Q3.27 16.10 3.58 15.87Q3.88 15.63 4.16 15.27Q4.44 14.90 4.69 14.45Q4.94 13.99 5.12 13.55Q5.30 13.10 5.40 12.70Q5.50 12.30 5.50 12.07L5.50 12.07ZM7.21 17.09L6.02 17.09Q5.94 16.93 5.88 16.64Q5.82 16.35 5.79 16.03Q5.75 15.70 5.73 15.38Q5.71 15.06 5.71 14.83L5.71 14.83L5.71 14.29Q5.50 14.82 5.22 15.35Q4.94 15.88 4.57 16.30Q4.20 16.73 3.75 16.99Q3.30 17.26 2.77 17.26L2.77 17.26Q2.34 17.26 1.96 17.07Q1.59 16.88 1.31 16.50Q1.03 16.13 0.88 15.57Q0.72 15.01 0.72 14.29L0.72 14.29Q0.72 13.47 0.94 12.70Q1.16 11.92 1.61 11.32Q2.06 10.71 2.75 10.35Q3.45 9.98 4.41 9.98L4.41 9.98Q5.07 9.98 5.66 10.07Q6.25 10.15 6.77 10.29L6.77 10.29L6.77 13.47Q6.77 14.76 6.89 15.64Q7.01 16.52 7.21 17.09L7.21 17.09ZM8.78 10.12L14.22 10.12L14.22 10.77L10.15 16.06L13.09 16.06Q13.39 16.06 13.70 16.05Q14.01 16.04 14.32 15.96L14.32 15.96L14.32 17.09L8.58 17.09L8.58 16.34L12.51 11.14L9.84 11.14Q9.54 11.14 9.26 11.16Q8.98 11.17 8.78 11.25L8.78 11.25L8.78 10.12ZM16.88 13.64L16.88 13.64Q16.88 14.23 17.03 14.70Q17.17 15.18 17.44 15.50Q17.70 15.83 18.06 16.00Q18.42 16.17 18.87 16.17L18.87 16.17Q19.28 16.17 19.64 16.00Q20.00 15.83 20.27 15.50Q20.54 15.18 20.70 14.70Q20.85 14.23 20.85 13.64L20.85 13.64Q20.85 13.04 20.71 12.56Q20.56 12.09 20.30 11.75Q20.04 11.42 19.67 11.25Q19.30 11.07 18.87 11.07L18.87 11.07Q18.45 11.07 18.09 11.25Q17.73 11.42 17.46 11.75Q17.19 12.09 17.04 12.56Q16.88 13.04 16.88 13.64ZM15.62 13.64L15.62 13.64Q15.62 12.76 15.89 12.08Q16.15 11.40 16.60 10.93Q17.06 10.46 17.66 10.22Q18.26 9.98 18.94 9.98L18.94 9.98Q19.64 9.98 20.22 10.22Q20.81 10.46 21.23 10.93Q21.65 11.40 21.88 12.08Q22.11 12.76 22.11 13.64L22.11 13.64Q22.11 14.52 21.85 15.20Q21.58 15.87 21.13 16.33Q20.68 16.79 20.08 17.02Q19.48 17.26 18.80 17.26L18.80 17.26Q18.09 17.26 17.51 17.02Q16.93 16.79 16.51 16.33Q16.08 15.87 15.85 15.20Q15.62 14.52 15.62 13.64ZM28.54 14.36L28.54 11.66Q28.29 11.52 28.07 11.42Q27.85 11.33 27.64 11.27Q27.43 11.20 27.21 11.17Q26.99 11.14 26.73 11.14L26.73 11.14Q26.34 11.14 25.98 11.32Q25.63 11.50 25.35 11.83Q25.07 12.17 24.91 12.65Q24.75 13.13 24.75 13.74L24.75 13.74Q24.75 14.94 25.15 15.55Q25.56 16.17 26.46 16.17L26.46 16.17Q26.77 16.17 27.08 16.01Q27.39 15.85 27.67 15.60Q27.95 15.35 28.17 15.02Q28.40 14.70 28.54 14.36L28.54 14.36ZM29.80 6.15L29.80 13.47Q29.80 14.76 29.95 15.64Q30.10 16.52 30.32 17.09L30.32 17.09L29.09 17.09Q29.01 16.91 28.91 16.56Q28.80 16.21 28.71 15.83L28.71 15.83Q28.22 16.52 27.60 16.89Q26.97 17.26 26.22 17.26L26.22 17.26Q25.59 17.26 25.08 17.02Q24.58 16.79 24.22 16.35Q23.86 15.92 23.67 15.31Q23.48 14.70 23.48 13.95L23.48 13.95Q23.48 13.04 23.73 12.30Q23.98 11.57 24.42 11.06Q24.86 10.54 25.45 10.26Q26.04 9.98 26.73 9.98L26.73 9.98Q26.95 9.98 27.18 10.03Q27.42 10.08 27.65 10.16Q27.89 10.24 28.12 10.35Q28.34 10.45 28.54 10.56L28.54 10.56L28.54 8.65Q28.54 7.82 28.50 7.20Q28.46 6.58 28.37 6.15L28.37 6.15L29.80 6.15ZM31.96 7.90L31.96 7.90Q31.96 7.70 32.02 7.54Q32.08 7.37 32.19 7.24Q32.31 7.12 32.46 7.04Q32.62 6.97 32.81 6.97L32.81 6.97Q33.00 6.97 33.17 7.04Q33.33 7.12 33.45 7.24Q33.56 7.37 33.63 7.54Q33.70 7.70 33.70 7.90L33.70 7.90Q33.70 8.09 33.63 8.25Q33.56 8.42 33.45 8.55Q33.33 8.67 33.17 8.75Q33.00 8.82 32.81 8.82L32.81 8.82Q32.62 8.82 32.46 8.75Q32.31 8.67 32.19 8.55Q32.08 8.42 32.02 8.25Q31.96 8.09 31.96 7.90ZM33.46 10.12L33.46 13.84Q33.46 14.17 33.47 14.62Q33.48 15.07 33.50 15.52Q33.52 15.98 33.54 16.40Q33.56 16.82 33.60 17.09L33.60 17.09L32.20 17.09L32.20 13.47Q32.20 12.97 32.19 12.48Q32.19 12.00 32.18 11.56Q32.17 11.13 32.15 10.76Q32.13 10.38 32.09 10.12L32.09 10.12L33.46 10.12ZM37.02 17.09L35.75 17.09L35.75 9.37Q35.75 8.26 35.74 7.43Q35.72 6.60 35.65 6.15L35.65 6.15L37.02 6.15L37.02 12.98L39.79 10.12L41.49 10.12L38.11 13.17L41.70 17.09L40.02 17.09L37.02 13.54L37.02 17.09Z">
        </path>
    </g>
    <defs data-v-423bf9ae="">
        <linearGradient data-v-423bf9ae="" gradientTransform="rotate(25)" id="c1e287a9-28d5-4050-a507-45cd652accca"
            x1="0%" y1="0%" x2="100%" y2="0%">
            <stop data-v-423bf9ae="" offset="0%" style="stop-color: rgb(8, 199, 214); stop-opacity: 1;"></stop>
            <stop data-v-423bf9ae="" offset="100%" style="stop-color: rgb(2, 2, 62); stop-opacity: 1;"></stop>
        </linearGradient>
    </defs>
    <g data-v-423bf9ae="" id="50924805-174a-4141-9afa-48c95459083c" transform="matrix(2.8125,0,0,2.8125,0,0)"
        stroke="none" fill="#3ECC5F">
        <path d="M9.382 8.675h13.943v13.943L32 31.293V0H.707zM22.618 23.325H8.675V9.382L0 .707V32h31.293z"></path>
    </g>

</svg>